<svg xmlns="http://www.w3.org/2000/svg" viewBox="0 0 48 32" role="img" aria-label="Apple Pay">
  <rect width="48" height="32" rx="4" fill="#000"/>
  <path fill="#fff" d="M14.7 13.6c-.4.5-1 .9-1.7.9-.1-.6.2-1.3.6-1.7.4-.5 1-.8 1.6-.9.1.7-.2 1.3-.5 1.7zm.5.8c-.9-.1-1.7.5-2.1.5-.5 0-1.1-.5-1.9-.5-1 0-1.9.6-2.4 1.4-1 1.8-.3 4.5.7 5.9.5.7 1 1.5 1.8 1.5.7 0 1-.5 1.9-.5.9 0 1.1.5 1.9.5.8 0 1.3-.7 1.8-1.4.5-.8.8-1.6.8-1.7 0 0-1.5-.6-1.5-2.3 0-1.5 1.2-2.2 1.3-2.2-.7-1-1.8-1.1-2.3-1.2zM21.5 12h2.6c1.7 0 2.9 1.2 2.9 2.9 0 1.7-1.2 2.9-2.9 2.9h-1.5v3h-1.1V12zm1.1 1v3.8h1.4c1.1 0 1.7-.6 1.7-1.9 0-1.2-.6-1.9-1.7-1.9h-1.4zm6.6 7.9c-.9 0-1.5-.5-1.5-1.4 0-.8.6-1.4 1.7-1.5l1.4-.1v-.4c0-.6-.4-1-1.1-1-.6 0-1 .3-1.1.7h-1c.1-1 1-1.6 2.2-1.6 1.3 0 2.1.7 2.1 1.8V21h-1v-.7c-.3.5-.9.8-1.7.8zm.3-.8c.7 0 1.4-.4 1.4-1.1v-.4l-1.3.1c-.7 0-1 .3-1 .8 0 .4.3.6.9.6zm5.8 1.2-.5 1.4c-.5 1.5-1 2-2.2 2-.1 0-.4 0-.5-.1v-.8c.1 0 .3.1.5.1.5 0 .8-.2 1-.7l.1-.4-1.9-5.3h1.1l1.3 4.2 1.3-4.2h1.1l-1.9 5.3z"/>
</svg>
