<svg xmlns="http://www.w3.org/2000/svg" viewBox="0 0 48 32" role="img" aria-label="Google Pay">
  <rect width="48" height="32" rx="4" fill="#fff"/>
  <path fill="#5F6368" d="M22.4 16v3.5h-1.1v-8.6h2.9c.7 0 1.4.2 1.9.7s.7 1 .7 1.7c0 .7-.2 1.2-.7 1.7-.5.5-1.1.7-1.9.7l-1.8.3zm0-4v3h1.9c.4 0 .8-.1 1-.4.3-.3.4-.6.4-1 0-.4-.1-.7-.4-1-.3-.3-.6-.4-1-.4l-1.9-.2zm6.4 1.5c.8 0 1.4.2 1.9.6.4.4.7 1 .7 1.7v3.7H30v-.8h-.1c-.4.7-1.1 1-1.8 1-.7 0-1.2-.2-1.7-.6-.4-.4-.6-.9-.6-1.5 0-.6.2-1.1.7-1.5.5-.4 1.1-.6 1.9-.6.7 0 1.2.1 1.7.4v-.3c0-.4-.1-.7-.4-.9-.3-.3-.7-.4-1.1-.4-.6 0-1.1.3-1.5.8l-1-.6c.6-.7 1.4-1 2.5-1zm-1.4 4.4c0 .3.1.5.4.7.2.2.5.3.9.3.5 0 .9-.2 1.3-.5.4-.3.6-.7.6-1.2-.4-.3-.9-.4-1.6-.4-.5 0-.9.1-1.2.4-.3.2-.4.4-.4.7zm9.2-4.2-3.7 8.4h-1.1l1.4-3-2.4-5.4h1.2l1.7 4.2 1.7-4.2h1.2z"/>
  <path fill="#4285F4" d="M17.7 16.1c0-.4 0-.7-.1-1.1h-4.3v2.1h2.5c-.1.6-.4 1.1-1 1.5v1.2h1.5c.9-.8 1.4-2 1.4-3.7z"/>
  <path fill="#34A853" d="M13.3 20.6c1.2 0 2.2-.4 3-1.1l-1.5-1.1c-.4.3-.9.4-1.6.4-1.2 0-2.3-.8-2.6-1.9H9.1v1.2c.7 1.5 2.4 2.5 4.2 2.5z"/>
  <path fill="#FBBC04" d="M10.7 16.9c-.2-.6-.2-1.2 0-1.7v-1.3H9.1c-.6 1.1-.6 2.4 0 3.5l1.6-.5z"/>
  <path fill="#EA4335" d="M13.3 13.4c.7 0 1.3.2 1.8.7l1.3-1.3c-.8-.8-1.9-1.2-3.1-1.2-1.8 0-3.5.9-4.2 2.5l1.6 1.2c.4-1.1 1.4-1.9 2.6-1.9z"/>
</svg>
