<svg xmlns="http://www.w3.org/2000/svg" viewBox="0 0 48 32" role="img" aria-label="Visa">
  <rect width="48" height="32" rx="4" fill="#fff"/>
  <path fill="#1A1F71" d="M19.4 21h-3l1.9-10h3zM30.4 11.2c-.6-.2-1.5-.5-2.7-.5-3 0-5 1.5-5 3.6 0 1.6 1.5 2.4 2.7 3 1.2.5 1.6.9 1.6 1.4 0 .7-.9 1.1-1.8 1.1-1.2 0-1.8-.2-2.8-.6l-.4-.2-.4 2.4c.7.3 2 .6 3.4.6 3.2 0 5.2-1.5 5.2-3.7 0-1.2-.7-2.1-2.4-2.9-1-.5-1.6-.8-1.6-1.3 0-.4.5-.9 1.7-.9.9 0 1.6.2 2.1.4l.3.1.5-2.5zM34.6 17.4c.2-.6 1.2-3 1.2-3l.3-.8.2.7s.6 2.6.7 3.1h-2.4zm3.7-6.4h-2.3c-.7 0-1.3.2-1.6 1l-4.4 9h3.1l.6-1.6h3.8c.1.4.4 1.6.4 1.6h2.7l-2.3-10zM16.8 11l-3 6.8-.3-1.4c-.6-1.7-2.2-3.5-4-4.4l2.7 8h3.1l4.7-9h-3.2z"/>
  <path fill="#F7B600" d="M11.6 11h-4.7l-.1.2c3.7.9 6 3 7 5.5L13 12c-.2-.7-.7-1-1.4-1z"/>
</svg>
